<svg xmlns="http://www.w3.org/2000/svg" width="26" height="26" viewBox="0 0 26 26"><defs><style>.a{fill:none;}.b,.c{stroke:none;}.c{fill:#000;}</style></defs><g class="a"><path class="b" d="M13,0A13,13,0,0,1,26,13a13.13,13.13,0,0,1-3.808,9.192A12.792,12.792,0,0,1,13,26,13,13,0,0,1,13,0Z"/><path class="c" d="M 13 3 C 7.485979080200195 3 3 7.485979080200195 3 13 C 3 18.51401901245117 7.485979080200195 23 13 23 C 15.67885971069336 23 18.3034496307373 21.92432022094727 20.02079010009766 20.12256050109863 L 20.02507972717285 20.11807060241699 C 21.97129058837891 18.08461952209473 23 15.62322998046875 23 13 C 23 7.485979080200195 18.51401901245117 3 13 3 M 13 0 C 20.1796989440918 0 26 5.82029914855957 26 13 C 26 16.48215103149414 24.63092041015625 19.64453887939453 22.19237899780273 22.19239044189453 C 20.0345401763916 24.4563102722168 16.69754981994629 26 13 26 C 5.82029914855957 26 0 20.1796989440918 0 13 C 0 5.82029914855957 5.82029914855957 0 13 0 Z"/></g></svg>