<svg xmlns="http://www.w3.org/2000/svg" width="649" height="323.5" viewBox="0 0 649 323.5"><defs><style>.a{fill:#f3f3f3;}.b,.c{stroke:none;}.c{fill:red;}</style></defs><g class="a"><path class="b" d="M 619 323 L 30 323 C 26.017333984375 323 22.15399932861328 322.2200927734375 18.51741600036621 320.6819152832031 C 15.00466632843018 319.1961669921875 11.84974956512451 317.069091796875 9.14033317565918 314.3596801757812 C 6.431000232696533 311.6502380371094 4.303833484649658 308.4953308105469 2.8180832862854 304.9825744628906 C 1.279916644096375 301.3460083007812 0.5 297.482666015625 0.5 293.5 L 0.5 30 C 0.5 26.017333984375 1.279916644096375 22.15399932861328 2.8180832862854 18.51741600036621 C 4.303833484649658 15.00466632843018 6.431000232696533 11.84974956512451 9.14033317565918 9.14033317565918 C 11.84974956512451 6.431000232696533 15.00466632843018 4.303833484649658 18.51741600036621 2.8180832862854 C 22.15399932861328 1.279916644096375 26.017333984375 0.5 30 0.5 L 619 0.5 C 622.982666015625 0.5 626.8460083007812 1.279916644096375 630.4826049804688 2.8180832862854 C 633.995361328125 4.303833484649658 637.1502685546875 6.431000232696533 639.8596801757812 9.14033317565918 C 642.569091796875 11.84974956512451 644.6961669921875 15.00466632843018 646.1819458007812 18.51741600036621 C 647.7200927734375 22.15399932861328 648.5 26.017333984375 648.5 30 L 648.5 293.5 C 648.5 297.482666015625 647.7200927734375 301.3460083007812 646.1819458007812 304.9825744628906 C 644.6961669921875 308.4954223632812 642.569091796875 311.6502380371094 639.8596801757812 314.3596801757812 C 637.1502685546875 317.069091796875 633.9954223632812 319.1961669921875 630.4826049804688 320.6819152832031 C 626.8460083007812 322.2200927734375 622.982666015625 323 619 323 Z"/><path class="c" d="M 30 1 C 26.0845947265625 1 22.28680419921875 1.766571044921875 18.712158203125 3.278594970703125 C 15.25897216796875 4.73907470703125 12.157470703125 6.83026123046875 9.493896484375 9.493927001953125 C 6.83026123046875 12.15750122070312 4.73907470703125 15.25900268554688 3.278564453125 18.712158203125 C 1.7666015625 22.28683471679688 1 26.0845947265625 1 30 L 1 293.5 C 1 297.4154052734375 1.7666015625 301.2131652832031 3.278564453125 304.7877502441406 C 4.73907470703125 308.2409973144531 6.83026123046875 311.3424072265625 9.493896484375 314.0060729980469 C 12.157470703125 316.6697387695312 15.25897216796875 318.7608337402344 18.712158203125 320.2214050292969 C 22.28680419921875 321.7334289550781 26.0845947265625 322.5 30 322.5 L 619 322.5 C 622.9154052734375 322.5 626.7131958007812 321.7334289550781 630.2877197265625 320.2214050292969 C 633.7410278320312 318.7608337402344 636.8424072265625 316.6697387695312 639.506103515625 314.0060729980469 C 642.1697387695312 311.3424072265625 644.2608032226562 308.2409973144531 645.721435546875 304.7877502441406 C 647.2333984375 301.2131652832031 648 297.4154052734375 648 293.5 L 648 30 C 648 26.0845947265625 647.2333984375 22.28683471679688 645.721435546875 18.712158203125 C 644.2608032226562 15.25900268554688 642.1697387695312 12.15750122070312 639.506103515625 9.493927001953125 C 636.8424072265625 6.83026123046875 633.7410278320312 4.73907470703125 630.2877197265625 3.278594970703125 C 626.7131958007812 1.766571044921875 622.9154052734375 1 619 1 L 30 1 M 30 0 L 619 0 C 635.5684814453125 0 649 13.43142700195312 649 30 L 649 293.5 C 649 310.0685119628906 635.5684814453125 323.5 619 323.5 L 30 323.5 C 13.431396484375 323.5 0 310.0685119628906 0 293.5 L 0 30 C 0 13.43142700195312 13.431396484375 0 30 0 Z"/></g></svg>