<svg xmlns="http://www.w3.org/2000/svg" width="606" height="599" viewBox="0 0 606 599"><defs><style>.a{fill:#fff;}.b,.c{stroke:none;}.c{fill:#000;}</style></defs><g class="a"><path class="b" d="M 303 595 C 282.7076110839844 595 262.4291687011719 592.9794311523438 242.7279205322266 588.99462890625 C 223.5299224853516 585.1115112304688 204.6463012695312 579.3174438476562 186.6016082763672 571.7733764648438 C 168.8844604492188 564.3661499023438 151.7960815429688 555.197998046875 135.8112335205078 544.5236206054688 C 119.9780731201172 533.9505615234375 105.0893096923828 521.80810546875 91.55861663818359 508.4336853027344 C 78.02869415283203 495.0600891113281 65.74538421630859 480.3446044921875 55.04999923706055 464.6962280273438 C 44.2533073425293 448.8996276855469 34.98038482666016 432.0130004882812 27.48869323730469 414.5053100585938 C 19.85930824279785 396.6756896972656 13.9996919631958 378.0173950195312 10.07284641265869 359.0488586425781 C 6.043230533599854 339.5839233398438 4 319.5488586425781 4 299.5 C 4 279.4511413574219 6.043230533599854 259.4160766601562 10.07284641265869 239.9512329101562 C 13.9996919631958 220.9826202392578 19.85930824279785 202.3243865966797 27.48869323730469 184.4946899414062 C 34.98038482666016 166.9870758056641 44.2533073425293 150.1003875732422 55.04999923706055 134.3038482666016 C 65.74538421630859 118.655387878418 78.02869415283203 103.9400024414062 91.55861663818359 90.56638336181641 C 105.0893096923828 77.19192504882812 119.9780731201172 65.04953765869141 135.8112335205078 54.47638320922852 C 151.7960815429688 43.80199813842773 168.8844604492188 34.63384628295898 186.6016082763672 27.22669219970703 C 204.6463012695312 19.68253898620605 223.5299224853516 13.88846111297607 242.7279205322266 10.00538444519043 C 262.4291687011719 6.020538330078125 282.7076110839844 4 303 4 C 323.2924499511719 4 343.5708312988281 6.020538330078125 363.2720642089844 10.00538444519043 C 382.4700622558594 13.88846111297607 401.3536987304688 19.68253898620605 419.3983764648438 27.22669219970703 C 437.1156005859375 34.63384628295898 454.2040100097656 43.80199813842773 470.1888427734375 54.47638320922852 C 486.0220031738281 65.04953765869141 500.9107055664062 77.19192504882812 514.44140625 90.56638336181641 C 527.9713134765625 103.9400024414062 540.254638671875 118.655387878418 550.9500122070312 134.3038482666016 C 561.7467041015625 150.1003875732422 571.0195922851562 166.9870758056641 578.5112915039062 184.4946899414062 C 586.1407470703125 202.3243865966797 592.0003051757812 220.9826202392578 595.9271240234375 239.9512329101562 C 599.956787109375 259.4160766601562 602 279.4511413574219 602 299.5 C 602 319.5488586425781 599.956787109375 339.5839233398438 595.9271240234375 359.0488586425781 C 592.0003051757812 378.0173950195312 586.1407470703125 396.6756896972656 578.5112915039062 414.5053100585938 C 571.0195922851562 432.0130004882812 561.7467041015625 448.8996276855469 550.9500122070312 464.6962280273438 C 540.254638671875 480.3446044921875 527.9713134765625 495.0600891113281 514.44140625 508.4336853027344 C 500.9107055664062 521.80810546875 486.0220031738281 533.9505615234375 470.1888427734375 544.5236206054688 C 454.2040100097656 555.197998046875 437.1156005859375 564.3661499023438 419.3983764648438 571.7733764648438 C 401.3536987304688 579.3174438476562 382.4700622558594 585.1115112304688 363.2720642089844 588.99462890625 C 343.5708312988281 592.9794311523438 323.2924499511719 595 303 595 Z"/><path class="c" d="M 303 8 C 140.33642578125 8 8 138.7663269042969 8 299.5 C 8 460.2336730957031 140.33642578125 591 303 591 C 465.66357421875 591 598 460.2336730957031 598 299.5 C 598 138.7663269042969 465.66357421875 8 303 8 M 303 0 C 470.3422546386719 0 606 134.0907592773438 606 299.5 C 606 464.9092407226562 470.3422546386719 599 303 599 C 135.6577453613281 599 0 464.9092407226562 0 299.5 C 0 134.0907592773438 135.6577453613281 0 303 0 Z"/></g></svg>