<svg xmlns="http://www.w3.org/2000/svg" width="566" height="760" viewBox="0 0 566 760"><defs><style>.a{fill:#fff;opacity:0.7;}.b,.c{stroke:none;}.c{fill:#707070;}</style></defs><g class="a"><path class="b" d="M 514 759.5 L 52 759.5 C 45.04510116577148 759.5 38.29869842529297 758.1864013671875 31.94809913635254 755.5958251953125 C 25.81509971618652 753.0938720703125 20.30719947814941 749.5125122070312 15.57759952545166 744.950927734375 C 10.84920024871826 740.3905029296875 7.13700008392334 735.0805053710938 4.544300079345703 729.1683959960938 C 1.860700011253357 723.049072265625 0.5 716.5487060546875 0.5 709.8477172851562 L 0.5 50.15230178833008 C 0.5 43.45130157470703 1.860700011253357 36.95090103149414 4.544300079345703 30.83160018920898 C 7.13700008392334 24.91950035095215 10.84920024871826 19.60960006713867 15.57759952545166 15.0492000579834 C 20.30719947814941 10.48760032653809 25.81509971618652 6.906099796295166 31.94809913635254 4.404200077056885 C 38.29869842529297 1.813599944114685 45.04510116577148 0.5 52 0.5 L 514 0.5 C 520.9548950195312 0.5 527.7012939453125 1.813599944114685 534.0518798828125 4.404200077056885 C 540.1848754882812 6.906099796295166 545.6928100585938 10.48760032653809 550.4224243164062 15.0492000579834 C 555.1508178710938 19.60960006713867 558.8629760742188 24.91950035095215 561.4556884765625 30.83160018920898 C 564.1392822265625 36.95090103149414 565.5 43.45130157470703 565.5 50.15230178833008 L 565.5 709.8477172851562 C 565.5 716.5487060546875 564.1392822265625 723.049072265625 561.4556884765625 729.1683959960938 C 558.8629760742188 735.0805053710938 555.1508178710938 740.3905029296875 550.4224243164062 744.950927734375 C 545.6928100585938 749.5125122070312 540.1848754882812 753.0938720703125 534.0518798828125 755.5958251953125 C 527.7012939453125 758.1864013671875 520.9548950195312 759.5 514 759.5 Z"/><path class="c" d="M 52 1 C 45.1102294921875 1 38.42730712890625 2.30108642578125 32.13702392578125 4.86712646484375 C 26.06298828125 7.34490966796875 20.6083984375 10.8917236328125 15.9246826171875 15.40899658203125 C 11.243408203125 19.92388916015625 7.568603515625 25.1802978515625 5.002197265625 31.03240966796875 C 2.34649658203125 37.0880126953125 1 43.5208740234375 1 50.15228271484375 L 1 709.8477172851562 C 1 716.4791259765625 2.34649658203125 722.9119873046875 5.002197265625 728.9675903320312 C 7.568603515625 734.8197021484375 11.243408203125 740.0761108398438 15.9246826171875 744.5910034179688 C 20.6083984375 749.1082763671875 26.06298828125 752.6550903320312 32.13702392578125 755.1328735351562 C 38.42730712890625 757.6989135742188 45.1102294921875 759 52 759 L 514 759 C 520.8897705078125 759 527.5726928710938 757.6989135742188 533.8629760742188 755.1328735351562 C 539.93701171875 752.6550903320312 545.3916015625 749.1082763671875 550.0753173828125 744.5910034179688 C 554.756591796875 740.0761108398438 558.431396484375 734.8197021484375 560.997802734375 728.9675903320312 C 563.6535034179688 722.9119873046875 565 716.4791259765625 565 709.8477172851562 L 565 50.15228271484375 C 565 43.5208740234375 563.6535034179688 37.0880126953125 560.997802734375 31.03240966796875 C 558.431396484375 25.1802978515625 554.756591796875 19.92388916015625 550.0753173828125 15.40899658203125 C 545.3916015625 10.8917236328125 539.93701171875 7.34490966796875 533.8629760742188 4.86712646484375 C 527.5726928710938 2.30108642578125 520.8897705078125 1 514 1 L 52 1 M 52 0 L 514 0 C 542.7188110351562 0 566 22.45391845703125 566 50.15228271484375 L 566 709.8477172851562 C 566 737.5460815429688 542.7188110351562 760 514 760 L 52 760 C 23.28118896484375 760 0 737.5460815429688 0 709.8477172851562 L 0 50.15228271484375 C 0 22.45391845703125 23.28118896484375 0 52 0 Z"/></g></svg>